<mxfile host="app.diagrams.net" modified="2020-06-13T05:35:42.373Z" agent="5.0 (Windows NT 10.0; Win64; x64) AppleWebKit/537.36 (KHTML, like Gecko) Chrome/83.0.4103.61 Safari/537.36" etag="GtEIpEzGv85HAjA6j_B-" version="13.1.12" type="github">
  <diagram id="6vqGBFyeaekTmSSlqj3G" name="第 1 页">
    <mxGraphModel dx="1422" dy="772" grid="1" gridSize="10" guides="1" tooltips="1" connect="1" arrows="1" fold="1" page="1" pageScale="1" pageWidth="1169" pageHeight="1654" math="0" shadow="0">
      <root>
        <mxCell id="0" />
        <mxCell id="1" parent="0" />
        <mxCell id="bhBt9I5SkHPZegWzW2_r-9" style="edgeStyle=orthogonalEdgeStyle;rounded=0;orthogonalLoop=1;jettySize=auto;html=1;entryX=0.5;entryY=1;entryDx=0;entryDy=0;" edge="1" parent="1" source="bhBt9I5SkHPZegWzW2_r-1" target="bhBt9I5SkHPZegWzW2_r-8">
          <mxGeometry relative="1" as="geometry" />
        </mxCell>
        <mxCell id="bhBt9I5SkHPZegWzW2_r-11" style="edgeStyle=orthogonalEdgeStyle;rounded=0;orthogonalLoop=1;jettySize=auto;html=1;entryX=0.5;entryY=1;entryDx=0;entryDy=0;" edge="1" parent="1" source="bhBt9I5SkHPZegWzW2_r-1" target="bhBt9I5SkHPZegWzW2_r-10">
          <mxGeometry relative="1" as="geometry" />
        </mxCell>
        <mxCell id="bhBt9I5SkHPZegWzW2_r-1" value="VG逻辑卷组" style="rounded=1;whiteSpace=wrap;html=1;" vertex="1" parent="1">
          <mxGeometry x="140" y="450" width="870" height="60" as="geometry" />
        </mxCell>
        <mxCell id="bhBt9I5SkHPZegWzW2_r-2" value="LV逻辑卷" style="rounded=1;whiteSpace=wrap;html=1;dashed=1;" vertex="1" parent="1">
          <mxGeometry x="150" y="455" width="100" height="50" as="geometry" />
        </mxCell>
        <mxCell id="bhBt9I5SkHPZegWzW2_r-3" value="LV逻辑卷" style="rounded=1;whiteSpace=wrap;html=1;dashed=1;" vertex="1" parent="1">
          <mxGeometry x="280" y="455" width="100" height="50" as="geometry" />
        </mxCell>
        <mxCell id="bhBt9I5SkHPZegWzW2_r-4" value="LV逻辑卷" style="rounded=1;whiteSpace=wrap;html=1;dashed=1;" vertex="1" parent="1">
          <mxGeometry x="410" y="455" width="100" height="50" as="geometry" />
        </mxCell>
        <mxCell id="bhBt9I5SkHPZegWzW2_r-5" value="LV逻辑卷" style="rounded=1;whiteSpace=wrap;html=1;dashed=1;" vertex="1" parent="1">
          <mxGeometry x="770" y="455" width="100" height="50" as="geometry" />
        </mxCell>
        <mxCell id="bhBt9I5SkHPZegWzW2_r-6" value="LV逻辑卷" style="rounded=1;whiteSpace=wrap;html=1;dashed=1;" vertex="1" parent="1">
          <mxGeometry x="640" y="455" width="100" height="50" as="geometry" />
        </mxCell>
        <mxCell id="bhBt9I5SkHPZegWzW2_r-7" value="LV逻辑卷" style="rounded=1;whiteSpace=wrap;html=1;dashed=1;" vertex="1" parent="1">
          <mxGeometry x="890" y="455" width="100" height="50" as="geometry" />
        </mxCell>
        <mxCell id="bhBt9I5SkHPZegWzW2_r-8" value="PV物理卷" style="shape=cylinder;whiteSpace=wrap;html=1;boundedLbl=1;backgroundOutline=1;" vertex="1" parent="1">
          <mxGeometry x="240" y="200" width="60" height="80" as="geometry" />
        </mxCell>
        <mxCell id="bhBt9I5SkHPZegWzW2_r-10" value="PV物理卷" style="shape=cylinder;whiteSpace=wrap;html=1;boundedLbl=1;backgroundOutline=1;" vertex="1" parent="1">
          <mxGeometry x="830" y="200" width="60" height="80" as="geometry" />
        </mxCell>
        <mxCell id="bhBt9I5SkHPZegWzW2_r-12" value="逻辑卷是虚拟的，逻辑卷组中封装着多个逻辑卷，逻辑卷组对应着物理卷，物理卷保存数据后会被负载均衡的保存在不同逻辑卷中" style="text;html=1;align=center;verticalAlign=middle;resizable=0;points=[];autosize=1;" vertex="1" parent="1">
          <mxGeometry x="210" y="380" width="700" height="20" as="geometry" />
        </mxCell>
      </root>
    </mxGraphModel>
  </diagram>
</mxfile>
